<svg width="348" height="372" viewBox="0 0 348 372" fill="none" xmlns="http://www.w3.org/2000/svg">
<path d="M171.5 370.612C171.157 369.994 169.682 365.524 168.222 360.679C158.968 329.973 141.789 298.88 113.021 260.767C102.213 246.448 92.0403 233.768 64.532 200.33C32.6807 161.612 23.5571 149.209 14.3441 132.102C8.90366 121.999 3.26568 106.628 1.41034 96.8392C-0.443946 87.0559 -0.474173 71.0724 1.34585 62.7496C8.74913 28.8955 38.8206 3.35493 74.7788 0.38086C115.972 -3.02615 151.011 17.7832 169.422 56.5876L173.533 65.2526L176.628 58.4073C181.225 48.2358 185.653 41.3565 193.126 32.7731C212.154 10.9195 234.8 0.214514 262.081 0.177064C274.301 0.160314 281.303 1.17455 291.716 4.46961C307.29 9.39772 319.014 17.0749 329.455 29.1827C356.665 60.7361 353.443 103.723 319.923 156.37C312.103 168.651 297.995 186.822 278.593 209.602C256.25 235.833 245.332 249.165 234.155 263.867C207.364 299.107 189.345 331.127 179.434 361.11C177.922 365.684 176.338 369.946 175.914 370.581C174.929 372.057 172.312 372.075 171.5 370.612Z" fill="#FF0000"/>
</svg>
